<svg viewBox="0 0 800 700" xmlns="http://www.w3.org/2000/svg">
  <text x="400" y="30" text-anchor="middle" font-size="20" font-weight="bold">
    Data Flow: API → Display
  </text>

  <defs>
    <marker id="flow-arrow" markerWidth="10" markerHeight="10" refX="9" refY="3" orient="auto">
      <polygon points="0 0, 10 3, 0 6" fill="#333" />
    </marker>
  </defs>

  <!-- Step 1: HTTP Request -->
  <rect x="50" y="60" width="200" height="80" fill="#e3f2fd" stroke="#1976d2" stroke-width="2" rx="5"/>
  <text x="150" y="85" text-anchor="middle" font-size="13" font-weight="bold">1. HTTP Request (Core 0)</text>
  <text x="150" y="105" text-anchor="middle" font-size="11">GET /v1/sites/9112/departures</text>
  <text x="150" y="120" text-anchor="middle" font-size="10" fill="#666">WiFi + TLS + DNS</text>
  <text x="150" y="133" text-anchor="middle" font-size="10" fill="#666">~500ms</text>

  <!-- Arrow down -->
  <path d="M 150 140 L 150 170" fill="none" stroke="#333" stroke-width="2" marker-end="url(#flow-arrow)"/>

  <!-- Step 2: JSON Parsing -->
  <rect x="50" y="170" width="200" height="80" fill="#ffccbc" stroke="#d84315" stroke-width="2" rx="5"/>
  <text x="150" y="195" text-anchor="middle" font-size="13" font-weight="bold">2. JSON Parsing (Core 0)</text>
  <text x="150" y="215" text-anchor="middle" font-size="11">256KB buffer in PSRAM</text>
  <text x="150" y="230" text-anchor="middle" font-size="10" fill="#666">serde_json_core</text>
  <text x="150" y="243" text-anchor="middle" font-size="10" fill="#666">~50ms</text>

  <!-- Arrow right -->
  <path d="M 250 210 L 340 210" fill="none" stroke="#388e3c" stroke-width="3" marker-end="url(#flow-arrow)"/>
  <text x="295" y="205" text-anchor="middle" font-size="11" fill="#388e3c" font-weight="bold">Channel</text>

  <!-- Step 3: Channel Send -->
  <rect x="340" y="170" width="200" height="80" fill="#c8e6c9" stroke="#388e3c" stroke-width="2" rx="5"/>
  <text x="440" y="195" text-anchor="middle" font-size="13" font-weight="bold">3. Channel.send()</text>
  <text x="440" y="215" text-anchor="middle" font-size="11">Vec&lt;(line, dest, time)&gt;</text>
  <text x="440" y="230" text-anchor="middle" font-size="10" fill="#666">Non-blocking</text>
  <text x="440" y="243" text-anchor="middle" font-size="10" fill="#388e3c">Lock-free! ✓</text>

  <!-- Arrow down -->
  <path d="M 440 250 L 440 280" fill="none" stroke="#333" stroke-width="2" marker-end="url(#flow-arrow)"/>

  <!-- Core boundary -->
  <line x1="20" y1="270" x2="780" y2="270" stroke="#7b1fa2" stroke-width="3" stroke-dasharray="10,5"/>
  <text x="700" y="265" font-size="12" fill="#7b1fa2" font-weight="bold">→ Core 1</text>

  <!-- Step 4: Channel Receive -->
  <rect x="340" y="290" width="200" height="80" fill="#f3e5f5" stroke="#7b1fa2" stroke-width="2" rx="5"/>
  <text x="440" y="315" text-anchor="middle" font-size="13" font-weight="bold">4. try_receive() (Core 1)</text>
  <text x="440" y="335" text-anchor="middle" font-size="11">Check every 10ms</text>
  <text x="440" y="350" text-anchor="middle" font-size="10" fill="#666">Non-blocking poll</text>
  <text x="440" y="363" text-anchor="middle" font-size="10" fill="#7b1fa2">100Hz render loop</text>

  <!-- Arrow down -->
  <path d="M 440 370 L 440 400" fill="none" stroke="#333" stroke-width="2" marker-end="url(#flow-arrow)"/>

  <!-- Step 5: Render to Back Buffer -->
  <rect x="340" y="400" width="200" height="100" fill="#fff9c4" stroke="#f57f17" stroke-width="2" rx="5"/>
  <text x="440" y="425" text-anchor="middle" font-size="13" font-weight="bold">5. Render to Back Buffer</text>
  <text x="440" y="445" text-anchor="middle" font-size="11">Lock inactive FB (fb0 or fb1)</text>
  <text x="440" y="460" text-anchor="middle" font-size="10" fill="#666">Clear + draw text</text>
  <text x="440" y="475" text-anchor="middle" font-size="10" fill="#666">Calculate scroll offset</text>
  <text x="440" y="490" text-anchor="middle" font-size="10" fill="#f57f17">~10-20ms</text>

  <!-- Arrow down -->
  <path d="M 440 500 L 440 530" fill="none" stroke="#333" stroke-width="2" marker-end="url(#flow-arrow)"/>

  <!-- Step 6: Atomic Swap -->
  <rect x="340" y="530" width="200" height="70" fill="#c8e6c9" stroke="#388e3c" stroke-width="2" rx="5"/>
  <text x="440" y="555" text-anchor="middle" font-size="13" font-weight="bold">6. Atomic Buffer Swap</text>
  <text x="440" y="575" text-anchor="middle" font-size="11">active_is_zero.fetch_xor(true)</text>
  <text x="440" y="590" text-anchor="middle" font-size="10" fill="#388e3c">⚡ Instant! (~1 instruction)</text>

  <!-- Arrow down -->
  <path d="M 440 600 L 440 630" fill="none" stroke="#333" stroke-width="2" marker-end="url(#flow-arrow)"/>

  <!-- Step 7: Display Refresh -->
  <rect x="340" y="630" width="200" height="60" fill="#e1f5fe" stroke="#0277bd" stroke-width="2" rx="5"/>
  <text x="440" y="655" text-anchor="middle" font-size="13" font-weight="bold">7. Display Refresh</text>
  <text x="440" y="675" text-anchor="middle" font-size="11">DMA from active buffer @ 200Hz</text>

  <!-- Parallel display refresh indicator -->
  <rect x="580" y="290" width="180" height="400" fill="#e1f5fe" stroke="#0277bd" stroke-width="2" stroke-dasharray="5,5" rx="5"/>
  <text x="670" y="315" text-anchor="middle" font-size="12" font-weight="bold" fill="#0277bd">Display Refresh</text>
  <text x="670" y="335" text-anchor="middle" font-size="11" fill="#0277bd">(Always Running)</text>

  <!-- Timing bars -->
  <rect x="590" y="350" width="20" height="40" fill="#0277bd"/>
  <rect x="620" y="350" width="20" height="40" fill="#0277bd"/>
  <rect x="650" y="350" width="20" height="40" fill="#0277bd"/>
  <rect x="680" y="350" width="20" height="40" fill="#0277bd"/>
  <rect x="710" y="350" width="20" height="40" fill="#0277bd"/>
  <text x="670" y="410" text-anchor="middle" font-size="10">Every 5ms (200Hz)</text>

  <text x="670" y="450" text-anchor="middle" font-size="11" fill="#388e3c">
    Reads from front buffer
  </text>
  <text x="670" y="470" text-anchor="middle" font-size="11" fill="#d84315">
    While render writes to back
  </text>
  <text x="670" y="495" text-anchor="middle" font-size="12" font-weight="bold" fill="#388e3c">
    ✓ No blocking!
  </text>
  <text x="670" y="515" text-anchor="middle" font-size="12" font-weight="bold" fill="#388e3c">
    ✓ Butter-smooth!
  </text>
</svg>
